<?xml version="1.0" standalone="no"?>
<!DOCTYPE svg PUBLIC "-//W3C//DTD SVG 20010904//EN"
 "http://www.w3.org/TR/2001/REC-SVG-20010904/DTD/svg10.dtd">
<svg version="1.0" xmlns="http://www.w3.org/2000/svg"
 width="1024.000000pt" height="1024.000000pt" viewBox="0 0 1024.000000 1024.000000"
 preserveAspectRatio="xMidYMid meet">

<g transform="translate(0.000000,1024.000000) scale(0.100000,-0.100000)"
fill="#000000" stroke="none">
<path d="M5045 9287 c-22 -13 -74 -41 -115 -64 -147 -79 -340 -186 -660 -364
-63 -35 -133 -74 -155 -85 l-40 -22 -3 -100 -3 -101 171 97 170 97 0 77 c0 42
4 79 9 82 14 9 21 -20 21 -82 l0 -57 45 -2 c183 -10 304 -6 365 10 165 44 319
148 377 254 20 38 26 37 109 -10 l56 -32 -72 -68 c-121 -115 -278 -207 -446
-260 -44 -14 -160 -42 -257 -63 l-177 -37 0 -29 c0 -15 4 -28 9 -28 38 0 376
78 460 106 179 59 343 159 483 291 l56 54 44 -22 c98 -50 99 -41 -10 -125 -53
-41 -134 -108 -180 -148 -160 -141 -305 -201 -675 -280 -289 -62 -399 -103
-527 -198 -23 -17 -38 -78 -19 -78 6 0 29 15 52 34 51 41 160 96 247 124 36
12 163 42 283 67 395 83 519 139 732 332 96 87 226 183 248 183 9 0 34 -11 55
-24 21 -13 67 -38 102 -56 l64 -32 -109 -54 c-141 -68 -234 -139 -313 -239
-178 -225 -199 -239 -442 -280 -229 -39 -304 -59 -415 -114 -71 -35 -119 -67
-161 -108 -33 -32 -50 -49 -37 -39 31 26 29 11 -4 -33 -25 -33 -23 -32 27 13
73 65 129 102 204 136 83 38 146 53 371 90 276 45 333 75 462 245 113 149 186
206 388 303 l90 44 79 -46 c77 -43 78 -45 50 -51 -212 -48 -376 -129 -459
-227 -112 -132 -98 -299 33 -419 146 -133 361 -211 589 -213 67 -1 121 -2 120
-3 -1 0 -36 -24 -78 -52 -101 -67 -190 -164 -268 -290 -132 -215 -264 -313
-498 -371 -187 -46 -332 -48 -733 -14 -163 14 -215 15 -322 5 -258 -24 -503
-110 -725 -257 -44 -30 -84 -54 -87 -54 -12 0 -256 141 -256 148 0 11 160 122
215 149 l50 25 71 -41 72 -41 178 101 c99 55 224 126 279 157 187 104 210 118
210 130 0 6 -31 31 -69 54 -38 24 -71 48 -73 55 -2 6 16 25 41 43 26 17 46 35
46 40 0 6 5 10 10 10 6 0 10 -12 10 -27 0 -41 52 -124 109 -175 57 -51 178
-117 264 -144 31 -10 57 -21 57 -24 0 -10 -103 -20 -214 -21 -50 -1 -80 -4
-66 -7 23 -4 24 -5 5 -13 -14 -5 -4 -8 35 -9 98 -3 195 1 200 8 6 9 73 13 165
10 248 -8 370 -1 467 25 185 49 353 159 408 267 79 156 -5 328 -220 448 -65
37 -205 93 -240 97 -14 1 -68 8 -120 15 -351 46 -723 -90 -829 -302 -17 -34
-31 -69 -31 -78 0 -9 -30 -39 -67 -67 -89 -66 -87 -65 -117 -52 -22 11 -38 4
-158 -61 -73 -41 -162 -89 -198 -108 l-65 -35 -100 58 c-55 31 -101 59 -103
60 -2 2 38 24 90 50 184 94 255 154 392 334 123 162 189 224 295 279 70 36 76
41 67 61 -12 28 -21 27 -106 -15 -90 -46 -202 -149 -279 -259 -83 -118 -175
-211 -275 -277 -91 -60 -224 -128 -250 -128 -8 0 -58 26 -111 58 -87 51 -131
77 -274 159 l-44 26 106 37 c248 88 390 178 597 382 74 74 157 151 183 173 43
35 48 44 45 73 l-3 33 -49 -34 c-26 -19 -119 -104 -205 -189 -222 -218 -345
-296 -611 -389 l-135 -47 -3 -45 c-3 -41 0 -47 25 -59 21 -10 29 -22 33 -48 5
-31 13 -39 95 -88 72 -42 97 -52 125 -49 55 6 99 -10 106 -39 4 -14 4 -28 0
-31 -3 -4 9 -16 28 -27 19 -12 44 -28 57 -37 75 -51 230 -136 235 -128 7 12
71 11 94 -1 15 -8 46 5 159 67 99 55 141 83 141 96 0 10 12 30 26 44 21 21 32
25 65 20 51 -7 69 -22 69 -58 0 -42 -38 -63 -97 -55 -44 6 -53 2 -185 -71 -87
-49 -138 -84 -138 -94 0 -27 -43 -59 -81 -59 -44 0 -77 23 -81 57 -2 21 -22
37 -120 94 -64 37 -126 69 -139 71 -15 2 -25 12 -29 28 -4 15 -13 24 -21 22
-85 -21 -139 -6 -139 38 0 33 -14 46 -110 100 -63 36 -83 42 -124 41 -33 -2
-54 3 -67 15 -27 24 -24 68 5 91 29 21 47 93 25 93 -35 -1 -403 -101 -474
-129 -44 -18 -116 -52 -159 -78 l-79 -45 -44 21 c-24 11 -43 25 -43 30 0 5 66
45 148 89 81 44 230 126 332 183 177 98 188 103 255 107 l70 4 0 129 c0 86 -3
128 -10 125 -33 -12 -977 -539 -1010 -563 -22 -16 -45 -40 -52 -53 -10 -20
-12 -434 -10 -2000 l2 -1975 22 -30 c14 -20 83 -64 204 -130 282 -154 301
-165 354 -195 28 -15 77 -42 110 -60 33 -18 110 -61 170 -95 61 -35 127 -71
148 -81 20 -10 37 -21 37 -25 0 -5 -19 -19 -42 -33 -24 -13 -144 -81 -268
-151 -124 -71 -242 -139 -262 -152 -36 -22 -46 -23 -223 -23 l-186 0 -78 45
c-69 40 -85 45 -139 45 l-62 0 0 59 c0 52 3 61 26 76 23 15 25 19 11 32 -13
13 -18 13 -47 -2 -27 -14 -38 -15 -58 -5 l-26 11 30 24 c24 20 26 24 12 30 -9
4 -31 -1 -48 -10 -27 -14 -38 -15 -59 -5 l-25 12 27 16 c50 31 20 54 -33 27
-27 -14 -38 -15 -59 -5 l-25 12 27 16 c29 18 36 42 12 42 -8 0 -30 -8 -49 -17
-35 -16 -37 -16 -85 10 -46 25 -56 27 -181 27 -125 0 -136 -2 -187 -27 -53
-27 -53 -27 -88 -9 -20 11 -41 16 -52 12 -16 -7 -15 -10 12 -32 25 -20 28 -26
15 -34 -21 -14 -36 -12 -72 6 -27 14 -32 14 -46 0 -14 -13 -13 -16 12 -27 56
-26 8 -50 -56 -28 -54 17 -74 -2 -27 -26 l33 -17 -27 -15 c-23 -12 -31 -12
-56 2 -57 29 -94 9 -41 -21 l30 -18 0 -133 c0 -77 4 -134 10 -138 17 -11 11
-24 -20 -40 -34 -17 -40 -45 -11 -45 11 0 36 9 55 21 28 17 39 18 56 9 22 -12
21 -12 -14 -36 -65 -44 -33 -71 34 -29 26 16 48 24 61 20 26 -9 24 -18 -11
-43 -58 -44 -21 -69 39 -27 33 22 43 25 61 15 22 -12 22 -12 -11 -40 -31 -26
-32 -29 -15 -36 13 -5 32 0 58 15 l38 22 47 -26 c44 -23 59 -25 168 -25 111 0
126 2 174 27 l54 26 42 -23 c61 -33 94 -8 35 27 -35 20 -37 29 -9 38 13 4 37
-2 65 -16 35 -19 46 -21 56 -11 13 13 5 23 -42 53 -13 8 -12 11 4 24 17 13 23
13 40 1 55 -35 64 -39 82 -32 17 7 15 11 -18 40 -37 33 -38 33 -15 43 17 8 30
5 61 -14 36 -23 40 -24 55 -8 17 18 16 19 -36 51 -14 10 -16 14 -6 25 7 7 13
32 13 55 0 35 4 43 23 48 45 12 72 5 162 -44 l92 -50 189 0 188 0 65 39 c36
21 176 101 311 178 135 77 254 145 265 152 17 11 28 8 79 -23 32 -19 63 -37
70 -39 6 -2 9 -6 6 -9 -5 -5 -175 -103 -270 -156 -25 -14 -185 -105 -355 -203
-171 -97 -322 -183 -336 -189 -23 -11 -32 -9 -70 16 -42 28 -46 29 -178 29
-131 -1 -138 -2 -187 -30 l-51 -28 -35 21 c-29 18 -37 20 -52 9 -17 -12 -16
-14 8 -30 14 -10 26 -22 26 -27 0 -18 -39 -20 -73 -4 -34 16 -67 14 -67 -4 0
-5 15 -15 32 -24 l33 -15 -29 -15 c-27 -14 -32 -14 -63 5 -32 18 -36 18 -50 4
-15 -15 -14 -17 10 -28 31 -14 34 -24 10 -37 -11 -7 -27 -5 -49 5 -54 26 -90
-3 -37 -30 l26 -14 -2 -124 c-2 -96 1 -129 12 -144 14 -18 12 -21 -20 -43 -31
-21 -33 -26 -20 -39 15 -15 36 -9 89 29 13 9 20 9 32 -1 22 -19 20 -24 -14
-44 -17 -10 -30 -23 -30 -28 0 -22 30 -19 68 6 34 22 44 25 62 15 17 -9 19
-14 10 -25 -7 -8 -20 -17 -31 -20 -10 -4 -19 -13 -19 -21 0 -26 27 -26 69 1
33 20 45 23 61 15 25 -13 19 -25 -21 -46 -25 -12 -28 -18 -18 -30 16 -19 23
-18 68 12 l40 26 46 -27 c45 -27 49 -28 173 -23 110 4 133 8 167 28 l41 23 41
-26 c35 -22 43 -24 59 -12 17 12 16 15 -20 36 -36 21 -37 23 -20 36 24 18 29
17 71 -12 28 -18 40 -22 50 -13 19 16 16 25 -17 44 -22 14 -27 21 -18 31 16
19 39 16 80 -12 31 -21 38 -22 48 -10 15 18 0 40 -31 50 -24 8 -24 22 0 30 12
3 37 -3 60 -15 48 -24 57 -25 64 -6 4 10 -7 23 -29 37 -32 20 -34 23 -20 38
13 14 16 43 16 138 0 85 4 124 13 131 7 6 75 46 152 90 77 43 196 111 265 152
69 40 166 95 215 122 50 28 147 83 216 124 69 41 128 74 131 74 17 0 148 -84
141 -90 -4 -4 -127 -76 -273 -160 -146 -83 -282 -163 -303 -176 l-38 -25 3
-91 3 -91 60 -37 c79 -48 82 -65 14 -79 -29 -6 -68 -21 -86 -32 -33 -21 -35
-21 -73 -4 -63 28 -99 2 -37 -27 l32 -16 -28 -13 c-23 -10 -33 -10 -62 4 -53
25 -90 4 -40 -23 32 -17 32 -28 0 -36 -16 -4 -35 0 -51 10 -24 16 -64 14 -64
-3 0 -5 14 -14 30 -21 36 -15 38 -23 7 -37 -17 -8 -29 -7 -48 3 -31 17 -69 18
-69 1 0 -8 11 -19 25 -25 25 -12 25 -12 25 -146 0 -79 4 -137 10 -141 17 -10
12 -20 -20 -38 -16 -10 -30 -24 -30 -31 0 -25 27 -25 62 -1 22 15 43 22 57 18
28 -7 27 -13 -11 -45 -26 -21 -30 -29 -21 -39 9 -9 22 -6 58 15 29 17 53 25
65 21 28 -9 25 -21 -10 -42 -16 -9 -30 -23 -30 -29 0 -24 32 -23 71 1 33 21
43 24 61 14 23 -12 22 -14 -29 -45 -15 -10 -16 -14 -5 -25 10 -11 20 -9 55 10
l43 23 52 -26 c47 -24 61 -26 174 -26 117 0 125 2 173 29 l50 28 38 -24 c37
-23 67 -25 67 -4 0 5 -13 18 -30 27 -22 14 -27 21 -18 31 15 19 33 16 77 -12
32 -20 41 -22 50 -11 9 11 4 20 -20 41 -26 21 -30 28 -18 36 20 13 26 12 68
-13 25 -14 44 -19 57 -14 17 7 16 10 -16 37 -29 25 -32 31 -20 39 21 13 25 13
72 -11 35 -18 42 -19 55 -6 13 13 10 17 -22 37 -28 17 -33 25 -25 35 7 8 12
65 12 144 1 127 2 131 26 147 22 14 23 18 9 31 -13 13 -18 13 -41 -2 -16 -11
-35 -15 -51 -11 -32 8 -32 19 2 41 23 15 24 19 9 27 -11 6 -26 4 -48 -6 -36
-18 -47 -19 -68 -6 -13 8 -10 14 15 34 27 22 28 25 11 32 -11 4 -30 0 -48 -10
-18 -11 -39 -16 -54 -12 -31 8 -31 19 1 36 14 7 25 19 25 27 0 18 -33 16 -68
-4 -28 -16 -31 -15 -82 10 -44 22 -68 27 -127 27 -73 0 -73 0 -73 28 0 37 -6
43 -73 81 l-58 33 3 70 3 70 205 118 c113 65 252 145 310 178 l105 61 55 -31
c129 -73 778 -433 930 -516 25 -13 95 -53 155 -87 205 -116 282 -155 305 -155
22 0 123 50 285 142 44 25 145 82 225 126 80 44 204 112 275 152 170 94 213
118 315 174 47 25 92 50 100 56 8 5 35 21 60 34 25 13 221 122 435 241 215
120 451 251 525 293 74 41 144 80 155 87 11 7 45 26 75 42 47 25 333 183 640
353 53 29 94 60 108 80 l22 33 -2 1988 c-3 1892 -4 1988 -21 2007 -10 11 -97
63 -195 117 -715 395 -905 500 -990 547 l-53 30 3 -97 3 -97 87 -53 c99 -60
100 -54 -8 -118 -33 -20 -61 -43 -61 -51 0 -8 4 -13 8 -10 4 2 9 -2 12 -8 5
-15 61 11 147 68 l52 34 86 -46 86 -47 -29 -13 c-17 -8 -86 -36 -155 -63 -377
-148 -609 -298 -734 -475 -24 -34 -73 -115 -109 -181 -110 -200 -210 -304
-372 -384 -166 -82 -295 -108 -755 -150 -527 -49 -695 -85 -958 -208 l-74 -34
-51 27 c-107 55 -177 96 -177 103 0 8 98 55 186 90 203 79 531 128 969 146
230 9 379 24 509 51 183 39 337 100 409 164 23 19 47 30 68 31 19 1 6 5 -29 9
-62 7 -65 6 -140 -37 -179 -102 -381 -141 -872 -168 -405 -22 -551 -40 -752
-91 -125 -31 -223 -67 -320 -115 -43 -22 -86 -39 -95 -39 -10 0 -50 18 -88 41
-39 22 -107 61 -152 86 -46 24 -83 48 -83 51 0 10 139 93 235 140 98 49 263
105 370 127 128 26 288 29 500 10 243 -21 501 -22 618 -1 202 37 381 118 482
220 28 28 94 116 146 196 67 101 115 162 158 201 82 73 238 170 348 215 187
77 270 132 339 226 24 33 44 64 44 68 0 5 4 20 10 35 l10 26 45 -27 46 -26 -3
97 -3 98 -110 62 c-60 34 -139 77 -175 96 -36 20 -130 72 -210 116 -80 44
-174 96 -210 115 -36 20 -93 52 -127 71 l-63 36 0 -108 0 -107 30 -22 c36 -27
38 -45 5 -77 -28 -29 -70 -32 -103 -9 -29 20 -84 8 -176 -38 -87 -43 -95 -52
-89 -97 4 -32 1 -41 -18 -55 -13 -9 -31 -16 -41 -16 -15 0 -18 -9 -18 -50 0
-65 22 -110 54 -110 13 0 36 -10 51 -21 21 -18 26 -28 21 -50 -5 -27 -2 -30
81 -71 88 -44 119 -49 206 -33 31 6 45 3 68 -14 37 -27 118 -28 222 -2 89 23
146 50 205 98 56 45 68 69 47 89 -9 9 -15 28 -13 43 3 23 -5 31 -62 65 -59 34
-68 37 -96 27 -46 -16 -82 -13 -104 9 -36 36 -17 80 41 95 32 8 85 -16 93 -42
3 -10 39 -37 80 -60 54 -32 84 -43 115 -43 31 0 48 -6 66 -25 14 -13 25 -29
25 -35 0 -17 -38 -49 -66 -56 -14 -4 -47 -27 -73 -53 -26 -25 -72 -61 -102
-79 -65 -38 -228 -82 -304 -82 -39 0 -56 -5 -70 -20 -13 -14 -31 -20 -61 -20
-36 0 -47 5 -65 29 -12 17 -38 33 -62 41 -23 6 -78 31 -122 54 -62 33 -89 42
-115 38 -25 -2 -43 2 -63 18 -31 24 -34 46 -11 71 14 16 14 20 -2 51 -10 19
-18 56 -18 88 -1 42 -6 59 -23 77 -28 27 -28 34 -5 63 11 14 33 23 62 27 25 3
54 14 65 24 25 22 148 83 195 97 19 5 52 25 73 45 l37 36 0 114 0 115 -152 85
c-84 47 -178 98 -208 114 -30 17 -98 54 -150 83 -461 259 -468 261 -545 217z
m117 -175 c26 -17 27 -18 10 -52 -27 -57 -115 -135 -194 -174 -94 -46 -170
-65 -289 -73 -164 -10 -158 -1 78 127 114 63 237 131 273 152 74 43 85 45 122
20z m1256 -692 c23 -13 42 -27 42 -31 0 -5 -19 -17 -43 -27 -45 -20 -236 -128
-250 -141 -8 -8 172 -131 192 -131 7 0 32 11 56 26 l44 25 40 -26 c23 -14 41
-29 41 -33 0 -14 -43 -48 -85 -70 -190 -94 -490 -17 -550 142 -15 38 -15 47
-2 78 17 41 62 78 133 109 37 17 75 24 155 27 l105 4 -4 61 -5 60 44 -25 c24
-14 63 -35 87 -48z m-1221 -513 c13 -16 40 -27 105 -40 49 -10 92 -15 98 -12
5 3 10 2 10 -2 0 -20 39 -33 67 -22 41 15 92 3 105 -26 8 -18 8 -28 -1 -39 -8
-10 -9 -16 -1 -21 6 -3 28 -31 51 -61 22 -30 47 -54 57 -54 23 0 62 -36 62
-57 0 -20 -28 -53 -46 -53 -7 0 -18 -15 -24 -34 -6 -19 -27 -55 -46 -80 -27
-35 -33 -51 -28 -71 12 -50 -58 -89 -118 -66 -20 7 -41 5 -88 -9 -34 -10 -88
-22 -119 -26 -36 -4 -64 -14 -79 -28 -33 -30 -107 -29 -131 0 -11 14 -39 26
-75 34 -32 7 -83 21 -114 31 -41 14 -64 17 -87 10 -67 -18 -125 19 -111 72 4
18 -3 31 -30 58 -20 19 -42 46 -50 62 -10 18 -22 27 -39 27 -15 0 -31 10 -41
25 -22 34 -6 73 34 81 21 4 32 15 41 40 7 19 24 48 38 65 17 20 27 44 27 66 1
27 8 41 28 56 24 18 31 19 70 8 36 -10 50 -9 88 4 25 9 80 23 122 30 50 9 84
21 97 34 30 30 103 29 128 -2z m2429 -152 c24 -14 65 -37 91 -52 l47 -26 -79
-17 c-246 -52 -511 -158 -660 -265 -83 -59 -203 -186 -260 -273 -25 -40 -77
-130 -113 -200 -36 -70 -89 -165 -118 -211 -47 -77 -58 -89 -120 -124 -471
-267 -473 -268 -517 -262 -66 9 -673 35 -811 35 -229 0 -430 -39 -558 -107
-51 -28 -72 -27 -128 8 l-35 22 60 28 c91 43 319 116 415 133 127 23 298 43
565 66 132 11 283 27 335 36 173 27 331 80 450 150 92 55 227 192 280 284 23
41 70 122 104 179 146 250 333 372 906 594 83 32 92 32 146 2z m330 -182 c57
-32 104 -60 104 -63 0 -3 -35 -23 -78 -46 -67 -35 -82 -40 -112 -33 -57 14
-239 11 -322 -5 -42 -8 -110 -29 -151 -46 -208 -86 -330 -202 -449 -425 l-53
-100 -140 -77 c-138 -77 -167 -90 -148 -65 6 6 39 66 73 132 97 185 147 266
214 346 164 196 442 334 846 420 47 9 91 18 99 18 7 1 60 -25 117 -56z m-5153
16 c-57 -33 -61 -40 -37 -60 14 -11 8 -17 -43 -42 -32 -16 -93 -50 -137 -75
-77 -45 -78 -45 -54 -58 23 -12 37 -7 167 59 l141 72 65 -35 c36 -19 65 -37
65 -40 0 -3 -43 -27 -95 -54 -53 -26 -118 -66 -145 -87 -27 -21 -52 -39 -54
-39 -3 0 -43 22 -88 49 -46 26 -122 69 -171 95 -48 26 -85 51 -82 56 8 14 186
96 260 120 70 23 231 68 250 69 6 0 -14 -13 -42 -30z m5011 -224 c-10 -8 -22
-15 -25 -15 -3 0 -37 -17 -75 -38 -38 -21 -196 -109 -352 -196 -156 -86 -301
-167 -322 -181 -22 -14 -42 -25 -44 -25 -3 0 16 37 42 82 67 117 191 241 297
295 142 72 218 90 384 92 103 1 113 -1 95 -14z m-4671 -57 c59 -35 103 -66 99
-69 -4 -4 -43 -26 -87 -49 -44 -23 -105 -60 -136 -82 l-56 -39 -112 61 c-61
34 -111 66 -111 71 0 15 259 168 286 169 7 0 59 -28 117 -62z m5025 -578 l-3
-210 -61 93 c-109 165 -156 315 -158 506 l-1 113 110 63 110 63 3 -209 c1
-115 1 -303 0 -419z m-6013 579 l72 -41 6 -227 c13 -426 75 -864 159 -1116 17
-49 52 -148 79 -219 137 -358 187 -624 168 -893 -4 -65 -21 -204 -38 -309 -56
-358 -56 -358 -55 -629 1 -197 6 -292 21 -392 10 -73 17 -133 15 -133 -2 0
-36 17 -74 38 l-70 37 6 71 c12 137 7 442 -9 571 -17 136 -57 304 -100 418
-15 39 -64 149 -110 245 -46 96 -100 222 -120 280 l-36 105 4 225 4 225 47
160 c67 230 86 352 86 551 0 139 -2 164 -15 164 -8 0 -16 6 -16 13 -1 6 -7
-80 -14 -193 -13 -204 -34 -334 -73 -455 l-20 -60 -1 803 c-1 441 2 802 5 802
4 0 39 -18 79 -41z m196 -108 l46 -23 11 -262 c24 -536 57 -717 222 -1216 104
-311 149 -477 180 -665 45 -265 42 -520 -10 -855 -18 -113 -38 -254 -46 -315
-15 -119 -18 -451 -6 -552 l8 -63 -50 29 -51 28 -12 82 c-33 234 -45 419 -39
581 6 159 13 223 71 595 20 131 27 208 27 335 1 300 -37 468 -211 934 -83 221
-125 412 -165 751 -29 242 -47 652 -28 643 4 -2 28 -14 53 -27z m1002 -17 c18
-9 74 -41 125 -72 l92 -55 -60 -35 c-33 -20 -91 -60 -130 -89 -38 -29 -71 -53
-74 -53 -4 0 -105 56 -219 122 l-69 40 39 26 c42 29 242 132 256 132 4 0 22
-7 40 -16z m4530 -111 c10 -200 56 -331 186 -530 38 -60 77 -125 85 -145 14
-33 16 -134 16 -804 0 -422 -2 -765 -4 -763 -2 2 -6 33 -7 69 -4 86 -9 111
-23 104 -6 -3 -3 1 8 10 17 14 18 25 12 123 -3 59 -8 119 -10 133 -2 14 -5 39
-6 55 l-2 30 -8 -30 c-5 -18 -8 29 -7 115 0 80 2 133 4 118 2 -16 8 -28 12
-28 10 0 8 76 -2 86 -10 10 -9 26 1 20 10 -6 -1 100 -11 110 -15 15 -21 -8
-11 -44 5 -20 7 -55 4 -77 -5 -33 -7 -25 -12 42 -9 105 -51 310 -83 403 -31
90 -92 205 -155 290 -104 141 -157 273 -185 467 -9 60 -15 142 -13 182 l3 73
90 53 c50 29 95 54 101 54 7 1 13 -40 17 -116z m-5280 -277 c8 -376 35 -505
183 -878 102 -256 139 -369 169 -508 56 -266 58 -572 6 -1025 -56 -495 -98
-1099 -70 -1020 22 65 20 46 69 550 12 116 37 350 56 520 43 382 50 521 35
697 -24 281 -58 419 -190 756 -131 336 -157 422 -187 625 -18 124 -31 501 -18
510 6 3 56 -20 111 -51 96 -53 102 -58 95 -82 -3 -14 -6 -140 -6 -280 0 -235
2 -267 27 -405 16 -82 37 -185 48 -229 28 -112 94 -281 131 -338 53 -83 133
-108 202 -63 65 43 147 227 177 395 24 137 10 444 -27 614 -4 16 -3 27 3 25 5
-2 81 -44 170 -93 l161 -89 9 -96 c4 -53 8 -166 7 -251 -1 -323 -70 -502 -282
-734 -109 -119 -152 -176 -201 -267 -86 -160 -126 -323 -156 -649 -24 -260
-56 -749 -69 -1052 -6 -152 -14 -279 -16 -282 -6 -6 -193 99 -208 116 -6 7
-16 95 -23 196 -15 217 -7 341 46 707 67 459 68 659 4 994 -32 169 -63 281
-170 607 -104 320 -146 478 -173 649 -22 144 -44 393 -52 599 l-7 179 70 -38
70 -38 6 -271z m5017 39 c23 -197 74 -328 197 -512 98 -146 121 -195 162 -331
54 -184 66 -282 66 -552 0 -160 -5 -271 -13 -320 -20 -112 -43 -212 -48 -207
-2 2 2 33 10 68 9 37 14 92 11 131 -7 113 -7 159 1 278 12 211 -23 416 -101
575 -33 68 -66 114 -134 190 -50 55 -111 126 -135 158 -26 33 -47 53 -51 47
-13 -21 48 -118 138 -220 50 -58 106 -129 124 -159 39 -64 98 -239 112 -332
15 -95 22 -261 11 -254 -6 4 -10 -3 -10 -15 0 -12 4 -19 8 -16 4 2 9 -4 9 -15
2 -24 -6 -24 -24 -1 -13 15 -13 15 -3 -6 6 -13 9 -30 6 -37 -3 -8 0 -12 8 -9
15 6 13 -70 -2 -89 -8 -9 -8 -17 0 -27 8 -12 9 -12 4 3 -3 11 -2 16 5 12 5 -4
7 -15 4 -25 -3 -10 0 -22 6 -26 9 -5 7 -9 -7 -14 -10 -4 -24 -4 -29 1 -7 5
-12 -4 -13 -26 -8 -118 -31 -287 -56 -410 -5 -22 0 -17 16 18 13 27 26 46 29
42 4 -3 11 7 17 24 6 16 8 32 5 35 -4 3 -1 6 6 6 14 0 12 -9 -35 -136 -38
-102 -101 -244 -108 -244 -6 0 4 30 14 45 4 6 10 24 13 40 3 17 8 41 12 55 16
52 -12 3 -44 -80 -19 -47 -61 -140 -93 -207 -34 -70 -57 -127 -52 -134 5 -8 3
-9 -6 -4 -10 6 -12 4 -7 -9 4 -9 3 -15 -2 -12 -16 10 -128 -265 -171 -419 -12
-44 -29 -100 -38 -125 -48 -131 1 149 53 305 26 75 87 218 177 409 126 267
180 451 219 744 35 266 18 520 -49 712 -44 125 -99 215 -230 376 -143 174
-213 388 -216 658 l-1 130 110 62 110 61 2 -61 c2 -34 7 -102 13 -151z m-4479
-71 c176 -98 209 -120 213 -142 12 -55 46 -379 46 -437 0 -270 -114 -575 -214
-575 -13 0 -35 11 -49 24 -100 93 -227 612 -227 931 0 135 10 315 18 315 3 0
99 -52 213 -116z m4178 12 c0 -59 10 -150 21 -209 38 -199 94 -324 210 -473
39 -49 90 -115 114 -146 112 -146 189 -467 171 -718 -21 -300 -83 -500 -257
-826 -82 -155 -167 -326 -209 -425 -12 -27 -25 -46 -30 -43 -5 3 -7 -1 -4 -8
5 -12 -80 -257 -93 -268 -3 -3 -2 4 2 14 4 11 9 51 12 90 3 39 10 76 16 83 6
7 8 13 4 13 -4 0 0 13 9 30 8 16 15 42 15 57 0 22 2 25 10 13 7 -11 10 -11 10
-2 0 7 5 10 12 6 7 -5 8 -3 2 7 -11 19 -11 42 1 51 5 4 7 10 3 13 -6 6 -17 -4
-43 -40 -15 -21 -15 -19 14 75 27 87 -46 -39 -109 -187 -23 -56 -47 -100 -51
-97 -5 3 -16 -12 -25 -33 -40 -92 -50 -137 -28 -129 15 6 16 -6 4 -44 -7 -22
-8 -22 -9 -4 -1 11 -4 24 -8 27 -11 11 -32 -27 -33 -58 0 -21 -3 -26 -9 -16
-7 11 -10 9 -16 -8 -4 -13 -9 -20 -12 -18 -16 16 166 398 282 592 97 162 229
435 270 558 76 226 106 449 86 635 -29 273 -122 416 -350 537 -141 74 -205
131 -248 218 -55 110 -74 208 -80 412 -3 99 -1 195 4 214 8 31 21 42 128 101
66 37 136 76 155 88 19 12 40 22 46 22 8 0 12 -34 13 -104z m-406 -228 c-14
-279 51 -532 166 -646 28 -27 99 -76 172 -116 149 -83 223 -150 273 -245 56
-107 70 -180 70 -371 0 -132 -4 -187 -22 -275 -44 -215 -136 -428 -332 -769
-140 -244 -201 -367 -261 -524 -82 -217 -128 -419 -145 -635 l-6 -88 -50 -25
c-27 -14 -54 -22 -60 -18 -6 4 -8 3 -5 -3 3 -5 -8 -18 -26 -28 -18 -10 -41
-26 -53 -37 l-21 -18 -11 118 c-21 210 -82 372 -184 486 -32 36 -99 89 -182
144 -215 141 -278 219 -328 400 -18 65 -22 106 -22 257 -1 186 5 234 50 416
56 227 141 426 344 804 246 459 351 744 390 1065 l12 96 116 66 c65 37 118 67
119 67 2 1 0 -54 -4 -121z m-293 -67 c0 -46 -52 -294 -81 -386 -63 -202 -176
-451 -344 -760 -139 -256 -219 -434 -269 -600 -131 -430 -135 -768 -14 -1009
44 -87 126 -167 271 -263 192 -127 251 -196 312 -358 28 -75 55 -228 55 -317
0 -49 -3 -59 -22 -69 -19 -9 -21 -9 -10 2 13 14 15 65 6 158 -6 48 -10 59 -20
50 -10 -8 -14 -2 -19 28 -3 21 -11 49 -17 63 -6 14 -11 30 -10 36 1 6 -5 17
-13 24 -8 7 -15 19 -15 27 0 23 -59 131 -77 142 -10 6 -13 11 -8 11 6 0 0 6
-12 13 -12 7 -37 26 -56 44 -19 17 -37 29 -40 27 -3 -3 -27 9 -55 25 -27 17
-53 31 -59 31 -5 0 -42 50 -82 110 -40 61 -75 110 -76 110 -2 0 5 -25 16 -57
23 -67 23 -63 4 -63 -8 0 -15 5 -15 10 0 6 -8 14 -17 17 -10 4 -26 16 -36 28
-10 11 -15 14 -11 6 4 -9 3 -12 -4 -7 -5 3 -13 0 -16 -6 -3 -7 -3 -2 0 11 4
16 3 21 -5 17 -6 -4 -11 0 -11 9 0 11 -5 15 -16 11 -8 -3 -12 -2 -9 4 3 6 -1
10 -10 10 -11 0 -15 5 -12 15 4 8 1 17 -5 21 -7 4 -8 3 -4 -4 10 -17 -9 -15
-23 2 -7 8 -14 24 -16 36 -3 18 -2 20 10 10 16 -14 18 -10 9 14 -3 9 -14 16
-23 16 -11 0 -12 3 -4 8 7 4 11 15 9 24 -3 26 -16 34 -16 12 -1 -18 -1 -18
-11 -1 -8 13 -6 21 5 33 9 8 16 21 16 27 0 7 -5 4 -11 -5 -5 -10 -15 -18 -20
-18 -6 0 -7 5 -4 10 3 6 -1 17 -9 26 -9 8 -17 25 -18 37 0 12 -3 36 -6 52 -3
17 -6 107 -6 200 0 193 9 248 79 454 59 177 181 446 360 796 85 165 170 339
189 387 46 117 92 278 116 412 24 131 25 153 5 153 -10 0 -19 -24 -31 -76 -78
-364 -91 -402 -328 -886 -97 -198 -180 -367 -186 -375 -18 -28 -52 -104 -107
-240 -67 -166 -123 -377 -127 -480 -3 -82 8 -288 19 -360 4 -25 7 -78 7 -118
0 -40 2 -71 5 -68 4 3 14 -4 24 -16 19 -21 25 -53 12 -61 -5 -2 -2 -2 5 -1 24
6 8 -29 -18 -39 -9 -3 -3 -6 13 -6 19 -1 26 3 21 11 -4 6 -3 8 4 4 10 -6 7
-49 -4 -68 -3 -4 0 -8 5 -8 6 0 11 6 12 13 0 6 7 -1 14 -18 7 -16 11 -35 8
-42 -3 -7 26 -44 64 -83 38 -38 66 -70 62 -70 -4 0 -45 40 -91 88 -130 138
-186 271 -210 500 -13 132 0 336 32 492 43 211 140 473 325 880 213 467 267
640 300 948 l7 63 92 52 c50 30 123 72 161 94 82 48 85 49 85 24z m-2731 -132
c114 -61 105 -45 119 -209 15 -176 40 -305 94 -470 53 -164 85 -241 238 -570
144 -309 188 -420 229 -583 38 -146 51 -259 51 -439 0 -209 -19 -325 -121
-728 -120 -475 -149 -649 -149 -887 0 -51 -2 -93 -3 -93 -2 0 -44 22 -93 48
l-89 49 -6 49 c-4 27 -10 110 -14 184 -13 241 27 445 140 720 112 269 145 411
145 620 -1 276 -69 558 -210 865 -120 260 -266 376 -426 336 -58 -15 -113 -52
-193 -130 -147 -146 -242 -324 -306 -578 -66 -264 -62 -671 10 -1023 42 -202
65 -339 66 -389 1 -28 4 -37 7 -21 2 14 -1 75 -8 136 -15 127 -8 177 8 64 l11
-75 -5 75 c-3 41 -16 132 -29 202 -79 417 -72 800 19 1104 58 194 143 340 273
465 87 85 144 119 199 119 141 0 247 -119 367 -410 121 -296 164 -514 154
-788 -6 -181 -28 -282 -97 -447 -83 -197 -139 -362 -160 -470 -25 -129 -35
-342 -23 -472 5 -51 8 -93 6 -93 -2 0 -26 12 -53 28 l-50 27 6 51 c8 67 -10
267 -43 474 -19 122 -26 204 -27 315 0 138 1 155 25 210 14 33 48 92 76 131
115 156 138 237 137 464 -1 151 -4 175 -32 285 -51 193 -133 339 -213 381 -34
17 -106 18 -137 0 -81 -44 -182 -181 -236 -320 -59 -148 -84 -372 -67 -589 12
-159 23 -214 101 -532 33 -132 67 -280 75 -330 16 -95 33 -365 22 -365 -3 0
-52 25 -107 55 -55 30 -103 55 -105 55 -4 0 -20 -92 -17 -102 3 -11 -16 -10
-22 1 -4 5 0 12 6 14 9 4 8 6 -2 6 -9 1 -31 -9 -50 -22 -19 -13 -71 -43 -115
-66 -124 -67 -395 -223 -395 -227 0 -3 18 5 40 16 44 22 54 25 45 10 -13 -20
14 -9 102 45 50 30 103 57 118 61 33 8 182 89 203 110 8 8 19 13 26 11 6 -2
16 3 23 12 6 9 15 13 18 9 16 -16 -7 -37 -77 -72 -40 -21 -80 -43 -88 -50 -36
-30 -301 -176 -310 -171 -6 3 -10 3 -10 -2 0 -13 -63 -51 -97 -58 -29 -6 -34
-4 -43 21 -10 26 -11 26 -26 8 -9 -10 -13 -13 -9 -7 4 9 1 11 -9 7 -9 -3 -13
-10 -10 -16 3 -5 -2 -15 -11 -22 -15 -10 -15 -16 -6 -34 12 -22 8 -42 -9 -42
-4 0 -39 -19 -76 -42 -193 -117 -235 -138 -255 -128 -29 16 -24 24 33 55 29
16 47 30 40 33 -10 3 -10 7 0 20 7 8 -21 -3 -62 -26 -79 -43 -104 -44 -106 -3
-1 11 3 18 7 15 5 -3 18 0 29 6 17 9 19 14 9 26 -10 12 -18 11 -55 -11 -40
-23 -46 -25 -65 -11 -20 13 -16 17 88 79 59 35 124 72 143 82 19 10 37 21 40
26 3 5 23 15 43 24 37 15 38 15 28 -4 -15 -27 -14 -41 4 -41 15 0 22 -20 8
-20 -5 0 -19 -10 -33 -21 -20 -16 -15 -15 20 5 120 67 134 76 116 76 -14 0
-16 3 -8 13 9 10 7 19 -4 35 -14 20 -13 22 16 37 48 25 82 36 75 25 -3 -6 -2
-10 3 -10 4 0 17 -8 28 -19 20 -18 23 -17 197 83 150 85 174 103 163 115 -12
11 -30 4 -117 -45 -57 -32 -119 -69 -138 -81 -51 -35 -84 -28 -59 13 4 6 77
51 162 100 l155 89 1 115 0 115 -35 19 c-33 18 -35 22 -35 73 0 68 55 923 76
1178 49 602 92 727 355 1025 173 196 226 295 270 502 18 83 22 137 22 278 0
96 -5 203 -10 238 -5 34 -8 62 -5 62 3 0 39 -18 81 -41z m1711 -63 l255 -11
-45 -26 c-25 -14 -90 -52 -145 -84 -55 -31 -111 -57 -125 -57 -14 0 -50 9 -81
21 -173 63 -397 47 -579 -43 -40 -20 -77 -36 -82 -36 -20 0 -257 135 -255 145
6 19 173 74 268 89 116 17 435 19 789 2z m617 -53 c-3 -21 -11 -68 -16 -104
-16 -98 -66 -287 -107 -396 -20 -54 -98 -235 -174 -403 -220 -488 -290 -681
-342 -942 -18 -93 -22 -148 -22 -313 -1 -110 2 -225 6 -255 l7 -55 -14 40 -13
40 -7 -28 c-4 -15 -5 -46 -1 -67 3 -22 2 -40 -2 -40 -5 0 -9 24 -11 53 -3 76
-8 89 -32 77 -10 -6 -19 -17 -19 -25 0 -8 -6 -15 -14 -15 -8 0 -18 -5 -22 -12
-4 -6 -3 -8 3 -5 5 3 14 -16 19 -44 6 -27 7 -52 2 -55 -4 -3 -8 4 -8 15 0 11
-4 22 -8 25 -9 5 -7 -76 4 -134 3 -19 17 -70 30 -112 18 -57 29 -78 42 -78 13
0 14 -2 4 -9 -11 -6 -7 -21 17 -71 39 -80 34 -89 -6 -13 -79 149 -114 305
-120 536 -6 191 5 334 37 482 15 70 18 78 14 35 -3 -30 -8 -66 -11 -80 l-6
-25 22 25 c18 20 24 22 31 10 6 -9 4 -20 -3 -29 -10 -11 -9 -13 3 -9 17 6 17
85 0 102 -5 5 -10 25 -10 44 0 19 -4 31 -10 27 -5 -3 -10 1 -10 10 0 9 3 14 8
12 4 -3 8 14 8 37 2 52 69 265 190 598 157 432 234 756 234 980 l0 44 148 82
c81 45 151 82 156 82 5 0 6 -17 3 -37z m-2002 -67 c135 -75 150 -87 153 -112
21 -245 108 -472 289 -754 203 -319 292 -485 343 -639 l30 -93 0 -746 c0 -413
-4 -761 -9 -779 -5 -17 -31 -59 -59 -94 -155 -200 -224 -410 -224 -691 -1
-120 2 -117 -72 -65 l-29 21 6 175 c10 262 46 462 136 741 48 149 100 355 123
480 29 164 36 489 14 660 -38 284 -110 540 -230 814 -113 258 -115 211 -5
-115 80 -238 140 -466 166 -629 28 -179 25 -541 -6 -715 -21 -121 -39 -187
-155 -580 -74 -252 -104 -439 -107 -668 l-2 -137 -66 36 c-36 20 -72 42 -80
48 -11 9 -13 48 -8 211 6 240 24 350 109 683 128 499 151 634 151 872 -1 177
-17 302 -63 470 -42 155 -96 288 -242 600 -162 344 -220 492 -267 676 -32 129
-70 414 -54 414 4 -1 76 -38 158 -84z m1164 -71 c102 -24 103 -27 25 -72 -144
-84 -181 -104 -231 -130 l-52 -27 -43 20 c-23 10 -48 18 -55 16 -7 -2 -12 2
-11 9 2 7 -32 31 -74 53 -43 23 -76 45 -75 50 4 11 127 61 199 80 70 19 237
20 317 1z m471 -43 c0 -43 -23 -197 -46 -317 -33 -166 -76 -313 -159 -545
-189 -528 -223 -641 -271 -910 -20 -110 -27 -191 -31 -335 -9 -368 40 -537
257 -875 51 -80 103 -167 115 -195 25 -55 46 -155 33 -155 -5 0 -12 -9 -16
-20 -6 -15 -14 -2 -36 60 -42 118 -148 326 -165 322 -9 -2 -11 3 -7 13 6 17
-51 115 -67 115 -4 0 -5 4 -2 10 3 5 1 10 -5 10 -6 0 -10 -6 -9 -12 3 -26 -1
-39 -11 -33 -5 3 -10 -3 -10 -13 0 -24 -21 -34 -41 -20 -11 7 -9 8 6 3 15 -5
17 -3 8 6 -14 14 -47 4 -38 -11 3 -5 2 -10 -3 -10 -11 0 -9 -71 2 -89 4 -6 2
-11 -3 -11 -21 0 -10 -29 35 -95 26 -37 41 -65 35 -61 -21 14 -94 129 -133
212 -78 168 -78 161 -77 1035 l0 774 38 50 c111 145 222 357 266 510 26 91 48
222 62 374 l8 84 125 73 c69 40 128 73 133 73 4 1 7 -7 7 -17z m-1290 -76 c69
-38 133 -75 143 -84 13 -12 17 -31 17 -86 0 -80 27 -205 64 -295 32 -79 121
-215 190 -290 l56 -61 0 -196 c0 -127 -3 -193 -10 -189 -5 3 -10 11 -10 16 0
31 -134 272 -246 444 -105 162 -198 329 -243 436 -57 135 -120 388 -95 378 5
-2 66 -35 134 -73z m956 -153 c-30 -299 -92 -484 -249 -743 l-52 -85 -3 349
c-2 268 1 354 10 368 10 14 279 176 297 178 2 0 0 -30 -3 -67z m-513 -101 l27
-26 0 -224 0 -225 -21 19 c-39 35 -147 209 -178 284 -32 83 -61 207 -61 269
l0 39 103 -55 c56 -30 114 -67 130 -81z m3114 -494 c-2 -13 -4 -3 -4 22 0 25
2 35 4 23 2 -13 2 -33 0 -45z m-10 -90 c-3 -7 -5 -2 -5 12 0 14 2 19 5 13 2
-7 2 -19 0 -25z m-20 -110 c-3 -8 -6 -5 -6 6 -1 11 2 17 5 13 3 -3 4 -12 1
-19z m-10 -50 c-3 -8 -6 -5 -6 6 -1 11 2 17 5 13 3 -3 4 -12 1 -19z m-12 -58
c-9 -41 -17 -33 -9 9 4 17 9 30 11 27 3 -2 2 -19 -2 -36z m-5880 -255 c40 -82
86 -189 103 -236 41 -116 79 -306 92 -464 12 -139 4 -481 -11 -491 -5 -3 -28
6 -51 20 l-43 25 3 173 c7 329 -46 594 -163 828 l-45 90 1 152 0 153 20 -50
c11 -27 53 -117 94 -200z m5792 213 c-3 -8 -6 -5 -6 6 -1 11 2 17 5 13 3 -3 4
-12 1 -19z m70 -20 c-3 -8 -6 -5 -6 6 -1 11 2 17 5 13 3 -3 4 -12 1 -19z m-80
-20 c-3 -8 -6 -5 -6 6 -1 11 2 17 5 13 3 -3 4 -12 1 -19z m-4044 -38 c19 -16
50 -60 70 -97 111 -214 149 -544 84 -736 -27 -77 -36 -93 -122 -217 -70 -101
-87 -155 -93 -295 -3 -94 1 -160 22 -305 37 -264 46 -352 46 -458 l0 -93 -92
50 -93 50 -7 143 c-9 202 -31 335 -99 606 -78 305 -100 451 -100 657 0 233 31
386 106 520 50 90 90 142 137 175 54 40 96 40 141 0z m4234 -12 c-3 -7 -5 -2
-5 12 0 14 2 19 5 13 2 -7 2 -19 0 -25z m-10 -40 c-3 -8 -6 -5 -6 6 -1 11 2
17 5 13 3 -3 4 -12 1 -19z m1 -593 l-22 -20 17 21 c15 18 17 41 15 175 l-3
154 -44 -80 c-225 -413 -279 -565 -310 -877 -10 -101 -15 -118 -33 -118 -18 0
-2 210 26 340 43 204 114 377 249 611 69 119 116 213 119 236 2 10 4 -81 5
-202 3 -216 3 -219 -19 -240z m-121 303 c-66 -116 -91 -157 -94 -154 -2 2 16
38 41 81 26 42 46 80 46 84 0 7 21 31 28 31 2 0 -7 -19 -21 -42z m-5902 -133
c65 -201 76 -276 82 -532 3 -128 2 -233 -2 -233 -4 0 -36 16 -71 36 l-64 36 0
416 c0 280 4 412 10 402 6 -8 26 -64 45 -125z m5535 85 c-11 -22 -23 -40 -25
-40 -3 0 4 18 15 40 11 22 23 40 25 40 3 0 -4 -18 -15 -40z m131 -3 c-10 -9
-11 -8 -5 6 3 10 9 15 12 12 3 -3 0 -11 -7 -18z m-2309 -89 c-8 -8 -9 -4 -5
13 4 13 8 18 11 10 2 -7 -1 -18 -6 -23z m2223 -78 c-9 -16 -18 -30 -21 -30 -2
0 2 14 11 30 9 17 18 30 21 30 2 0 -2 -13 -11 -30z m166 -66 c-16 -33 -30 -56
-31 -52 0 11 53 118 58 114 2 -2 -10 -30 -27 -62z m-121 -2 c0 -5 -7 -17 -15
-28 -14 -18 -14 -17 -4 9 12 27 19 34 19 19z m380 -46 c0 -2 -8 -10 -17 -17
-16 -13 -17 -12 -4 4 13 16 21 21 21 13z m-309 -63 c-12 -20 -14 -14 -5 12 4
9 9 14 11 11 3 -2 0 -13 -6 -23z m279 23 c0 -2 -8 -10 -17 -17 -16 -13 -17
-12 -4 4 13 16 21 21 21 13z m68 -238 l-3 -223 -2 203 c-2 128 -7 202 -14 202
-6 0 -6 7 1 20 6 11 13 20 15 20 3 0 4 -100 3 -222z m-377 131 c-5 -13 -10
-19 -10 -12 -1 15 10 45 15 40 3 -2 0 -15 -5 -28z m232 -14 c-3 -9 -8 -14 -10
-11 -3 3 -2 9 2 15 9 16 15 13 8 -4z m-612 -72 c-12 -20 -14 -14 -5 12 4 9 9
14 11 11 3 -2 0 -13 -6 -23z m316 -135 c-3 -8 -6 -5 -6 6 -1 11 2 17 5 13 3
-3 4 -12 1 -19z m220 -10 c-3 -8 -6 -5 -6 6 -1 11 2 17 5 13 3 -3 4 -12 1 -19z
m-2363 -23 c5 -22 4 -26 -4 -15 -5 8 -10 24 -10 34 0 26 6 18 14 -19z m2133
-17 c-3 -8 -6 -5 -6 6 -1 11 2 17 5 13 3 -3 4 -12 1 -19z m220 -20 c-3 -8 -6
-5 -6 6 -1 11 2 17 5 13 3 -3 4 -12 1 -19z m-2306 -96 c16 -41 29 -79 28 -85
0 -7 -5 -1 -10 12 -5 13 -16 38 -23 55 -19 42 -36 96 -35 110 0 6 3 4 6 -4 3
-8 18 -48 34 -88z m2070 8 l-8 -65 -2 66 c0 36 2 69 6 73 12 12 13 -5 4 -74z
m-467 16 c-3 -15 -8 -25 -11 -23 -2 3 -1 17 3 31 3 15 8 25 11 23 2 -3 1 -17
-3 -31z m693 -18 c-3 -7 -5 -2 -5 12 0 14 2 19 5 13 2 -7 2 -19 0 -25z m103
-45 c0 -1 -8 -7 -18 -12 -13 -7 -19 -6 -19 2 0 7 9 13 19 13 10 0 18 -1 18 -3z
m-943 -25 c-3 -8 -6 -5 -6 6 -1 11 2 17 5 13 3 -3 4 -12 1 -19z m120 -20 c-3
-8 -6 -5 -6 6 -1 11 2 17 5 13 3 -3 4 -12 1 -19z m713 3 c0 -10 -6 -21 -14
-24 -11 -4 -11 -1 -2 19 13 29 16 30 16 5z m-2399 -58 c-3 -36 -6 -43 -12 -28
-10 25 -11 79 -2 88 12 13 18 -11 14 -60z m1556 35 c-3 -8 -6 -5 -6 6 -1 11 2
17 5 13 3 -3 4 -12 1 -19z m-1397 -33 c0 -5 -5 -3 -10 5 -5 8 -10 20 -10 25 0
6 5 3 10 -5 5 -8 10 -19 10 -25z m2007 -72 c-2 -16 -4 -5 -4 22 0 28 2 40 4
28 2 -13 2 -35 0 -50z m-1987 22 c0 -5 -5 -3 -10 5 -5 8 -10 20 -10 25 0 6 5
3 10 -5 5 -8 10 -19 10 -25z m1557 -17 c-3 -7 -5 -2 -5 12 0 14 2 19 5 13 2
-7 2 -19 0 -25z m-80 -10 c-3 -7 -5 -2 -5 12 0 14 2 19 5 13 2 -7 2 -19 0 -25z
m-1197 -195 c0 -2 -38 31 -85 74 -47 43 -91 78 -98 78 -12 0 -36 32 -37 49 0
4 50 -38 110 -94 61 -56 110 -104 110 -107z m1267 155 c-3 -7 -5 -2 -5 12 0
14 2 19 5 13 2 -7 2 -19 0 -25z m-1247 -63 c30 -30 52 -55 49 -55 -2 0 -29 25
-59 55 -30 30 -52 55 -49 55 2 0 29 -25 59 -55z m1237 -7 c-3 -8 -6 -5 -6 6
-1 11 2 17 5 13 3 -3 4 -12 1 -19z m268 3 c3 -5 2 -12 -3 -15 -5 -3 -9 1 -9 9
0 17 3 19 12 6z m-348 -33 c-3 -8 -6 -5 -6 6 -1 11 2 17 5 13 3 -3 4 -12 1
-19z m-1567 -18 c6 -11 8 -20 6 -20 -3 0 -10 9 -16 20 -6 11 -8 20 -6 20 3 0
10 -9 16 -20z m1830 2 c0 -5 -12 -14 -26 -21 -20 -9 -25 -9 -22 1 3 7 10 13
16 13 5 0 14 3 18 8 10 9 14 9 14 -1z m-1325 -52 c10 -11 16 -20 13 -20 -3 0
-13 9 -23 20 -10 11 -16 20 -13 20 3 0 13 -9 23 -20z m-435 -60 c6 -11 8 -20
6 -20 -3 0 -10 9 -16 20 -6 11 -8 20 -6 20 3 0 10 -9 16 -20z m1483 -41 c-5
-5 -7 7 -4 29 5 34 6 35 9 8 2 -16 0 -32 -5 -37z m-1889 -51 c20 -40 68 -116
106 -168 77 -105 123 -186 151 -269 21 -60 25 -96 5 -41 -17 45 -130 215 -208
313 l-17 22 -1 -22 c0 -13 5 -23 11 -23 5 0 7 -5 3 -12 -8 -12 -13 -49 -13
-88 0 -113 2 -126 23 -155 27 -37 38 -55 33 -55 -12 0 -71 98 -70 115 1 16 1
16 -3 3 -6 -21 -13 -22 -35 -5 -13 10 -17 48 -22 235 -4 122 -5 222 -3 222 2
0 20 -33 40 -72z m296 48 c0 -3 -4 -8 -10 -11 -5 -3 -10 -1 -10 4 0 6 5 11 10
11 6 0 10 -2 10 -4z m-4100 -193 l189 -108 0 -56 1 -57 -167 -95 c-241 -136
-217 -127 -340 -127 l-108 0 -190 109 -190 108 -3 55 -3 55 158 93 c87 51 172
101 188 111 25 15 51 19 153 19 l122 0 190 -107z m3573 -405 c-3 -255 -7 -465
-9 -467 -2 -2 -48 23 -103 54 l-100 58 -7 74 c-13 143 28 391 85 518 42 93
123 225 137 225 1 0 0 -208 -3 -462z m428 385 c13 -16 12 -17 -3 -4 -10 7 -18
15 -18 17 0 8 8 3 21 -13z m39 -54 c15 -28 5 -23 -15 7 -9 15 -12 23 -6 20 6
-4 16 -16 21 -27z m38 -74 c-3 -3 -9 2 -12 12 -6 14 -5 15 5 6 7 -7 10 -15 7
-18z m-4761 -205 c34 -19 40 -26 33 -40 -5 -10 -6 -21 -2 -25 9 -10 2 -7 -85
45 -60 34 -73 47 -73 67 l0 25 43 -25 c23 -13 61 -34 84 -47z m4497 -22 c-4
-7 -2 -8 4 -4 6 4 18 -6 27 -23 19 -38 19 -55 -1 -18 -8 15 -19 27 -24 27 -6
0 -10 -12 -11 -27 0 -16 -5 -84 -10 -153 -6 -69 -13 -156 -15 -194 -5 -55 -3
-72 9 -81 14 -10 13 -13 -4 -23 -19 -12 -19 -6 -19 275 l1 288 24 -28 c14 -16
22 -33 19 -39z m-4393 -35 c19 -11 29 -26 29 -40 0 -28 -9 -29 -53 -3 -26 15
-34 26 -30 40 6 24 17 25 54 3z m4676 -35 c-3 -8 -6 -5 -6 6 -1 11 2 17 5 13
3 -3 4 -12 1 -19z m80 0 c-3 -8 -6 -5 -6 6 -1 11 2 17 5 13 3 -3 4 -12 1 -19z
m-4656 -23 c39 -22 55 -25 153 -25 125 0 139 -7 23 -11 -106 -4 -127 -19 -47
-32 14 -2 1 -5 -29 -6 -70 -1 -146 37 -146 74 0 14 1 25 1 25 1 0 22 -11 45
-25z m4359 -20 c0 -5 -5 -3 -10 5 -5 8 -10 20 -10 25 0 6 5 3 10 -5 5 -8 10
-19 10 -25z m-4117 -52 c-7 -2 -19 -2 -25 0 -7 3 -2 5 12 5 14 0 19 -2 13 -5z
m4134 -35 c-3 -8 -6 -5 -6 6 -1 11 2 17 5 13 3 -3 4 -12 1 -19z m-3145 -104
c242 -137 228 -125 228 -187 l0 -52 -192 -110 -193 -110 -106 -3 c-121 -4
-117 -6 -344 125 -183 106 -166 90 -163 151 l3 54 185 109 185 109 122 0 122
0 153 -86z m3155 34 c-3 -7 -5 -2 -5 12 0 14 2 19 5 13 2 -7 2 -19 0 -25z
m-3772 -423 c106 -60 134 -81 117 -83 -19 -3 -21 -6 -11 -19 9 -10 2 -9 -22 5
-19 11 -77 43 -129 73 -101 56 -110 63 -110 92 0 23 -13 28 155 -68z m1885
-34 c80 -47 162 -94 182 -105 32 -18 38 -28 44 -63 3 -24 4 -49 1 -57 -3 -8
-93 -64 -201 -125 l-195 -111 -113 0 -113 0 -193 111 -193 111 3 56 3 56 80
46 c44 26 127 74 185 108 l105 62 130 -2 130 -3 145 -84z m-1575 -92 l100 -5
-96 -2 c-74 -2 -100 2 -115 14 -10 8 -12 12 -4 7 8 -4 60 -11 115 -14z m-71
-40 c29 -6 29 -7 5 -8 -14 -1 -34 6 -45 15 -10 8 -13 12 -5 8 8 -4 28 -11 45
-15z m906 -194 c0 -2 -8 -1 -17 2 -17 7 -17 5 0 -21 18 -27 18 -27 -2 -16 -13
6 -21 21 -21 36 0 22 2 23 20 14 11 -6 20 -13 20 -15z"/>
<path d="M4985 7849 c-72 -12 -170 -43 -170 -54 -3 -46 -58 -85 -99 -69 -21 8
-40 -8 -71 -63 l-25 -46 25 -23 c31 -28 31 -43 4 -78 l-21 -27 39 -47 c37 -43
44 -47 86 -47 50 -1 87 -25 87 -57 0 -23 47 -44 142 -64 63 -13 69 -13 100 6
42 26 79 25 112 -1 23 -18 35 -20 77 -15 79 11 179 45 179 61 0 29 38 55 79
55 32 0 44 6 68 33 35 40 62 99 46 104 -45 15 -62 74 -28 99 19 14 17 20 -28
77 -26 33 -34 37 -73 37 -58 0 -84 14 -84 45 0 21 -8 27 -63 44 -99 30 -155
36 -175 18 -30 -27 -89 -26 -120 3 -12 11 -25 19 -29 19 -4 -1 -30 -5 -58 -10z
m286 -128 c68 -22 150 -74 183 -118 10 -13 20 -41 23 -61 7 -55 -27 -99 -111
-142 -68 -34 -71 -35 -190 -35 -101 0 -131 4 -181 23 -127 47 -218 140 -201
205 15 63 102 127 197 147 67 14 206 5 280 -19z"/>
<path d="M5470 7810 c-18 -11 -14 -15 38 -33 39 -14 43 -13 52 3 6 11 5 21 -2
28 -14 14 -67 15 -88 2z"/>
<path d="M5460 7764 c0 -18 20 -26 57 -22 27 3 26 4 -14 20 -37 14 -43 14 -43
2z"/>
<path d="M2248 5715 c-32 -18 -59 -85 -93 -230 -60 -253 -40 -372 115 -722 82
-183 119 -236 168 -236 17 0 38 5 46 12 32 26 90 274 102 427 11 157 -24 308
-127 549 -54 126 -81 171 -122 195 -38 23 -53 24 -89 5z m63 -55 c22 -12 54
-73 105 -198 122 -298 135 -419 73 -710 -27 -131 -38 -162 -55 -162 -26 0
-194 376 -229 510 -28 107 -23 251 14 393 29 110 54 177 67 177 3 0 14 -5 25
-10z"/>
<path d="M2279 5515 c-31 -17 -67 -91 -52 -106 7 -7 17 1 31 26 26 42 59 57
101 45 38 -11 40 2 5 29 -31 24 -49 26 -85 6z"/>
<path d="M2365 5378 c22 -13 54 -49 55 -61 0 -5 -12 5 -26 22 -51 60 -122 30
-149 -64 -17 -57 -14 -94 12 -180 51 -162 131 -227 187 -152 18 25 21 42 20
135 0 86 -5 118 -23 164 -12 32 -19 62 -16 68 9 15 -42 80 -63 80 -14 -1 -14
-2 3 -12z"/>
<path d="M2444 4862 c-26 -45 -56 -51 -96 -17 -19 17 -34 23 -36 16 -6 -18 25
-59 59 -77 45 -23 75 -7 89 46 15 56 8 71 -16 32z"/>
<path d="M7773 6876 c14 -216 96 -357 311 -534 43 -36 76 -45 76 -22 0 4 -56
63 -124 131 -82 82 -133 142 -150 177 -30 59 -71 205 -81 285 -5 39 -11 54
-22 54 -14 0 -15 -13 -10 -91z"/>
<path d="M8130 5414 c0 -8 5 -12 10 -9 6 4 8 11 5 16 -9 14 -15 11 -15 -7z"/>
<path d="M8130 5374 c0 -8 5 -12 10 -9 6 3 10 10 10 16 0 5 -4 9 -10 9 -5 0
-10 -7 -10 -16z"/>
<path d="M3602 6148 c-6 -183 -48 -369 -110 -493 -40 -80 -80 -134 -167 -225
-76 -80 -130 -144 -95 -112 21 18 35 15 19 -5 -8 -10 21 14 64 52 182 163 281
353 316 610 14 98 14 226 1 205 -7 -11 -10 -7 -10 18 0 17 -3 32 -8 32 -4 0
-8 -37 -10 -82z"/>
<path d="M7945 5251 c-3 -5 -2 -12 3 -15 5 -3 9 1 9 9 0 17 -3 19 -12 6z"/>
<path d="M3005 6453 c5 -73 39 -242 66 -328 22 -72 68 -146 89 -144 36 3 51
-1 44 -13 -4 -7 4 -3 18 10 40 37 61 127 62 267 1 164 -10 252 -33 258 -16 4
-17 -8 -13 -177 5 -187 -5 -275 -34 -312 -14 -18 -15 -18 -43 14 -38 44 -72
151 -107 336 -17 91 -30 141 -35 130 -6 -18 -7 -18 -12 1 -4 11 -4 -8 -2 -42z"/>
<path d="M7192 6758 c-15 -15 -16 -197 -2 -323 26 -224 74 -324 250 -520 59
-66 93 -115 127 -185 52 -106 70 -100 33 11 -30 89 -55 129 -159 249 -163 189
-197 284 -211 585 -5 105 -9 191 -9 193 -2 6 -18 1 -29 -10z"/>
<path d="M6757 5796 c-115 -47 -218 -149 -319 -316 -59 -97 -80 -139 -76 -151
2 -6 30 32 62 83 105 171 222 287 338 338 67 30 164 33 227 7 24 -10 45 -16
47 -14 2 1 -8 15 -21 29 -49 53 -163 63 -258 24z"/>
<path d="M6900 5620 c-277 -66 -576 -419 -715 -845 -114 -346 -111 -705 7
-899 16 -26 27 -50 24 -53 -2 -3 -9 5 -16 16 -6 12 -17 21 -24 21 -20 0 -49
37 -40 51 4 7 3 10 -4 6 -25 -16 -102 179 -102 260 0 52 15 38 18 -16 2 -55
16 -101 31 -101 12 0 3 57 -14 92 -7 15 -10 30 -5 33 5 3 11 -1 13 -7 3 -7 4
2 4 20 -1 22 -7 32 -17 31 -34 -3 -37 2 -39 54 -4 163 88 509 193 724 14 29
26 58 26 63 0 6 7 25 16 42 9 18 11 27 4 23 -15 -9 -100 -188 -147 -310 -84
-216 -123 -398 -123 -572 0 -159 9 -196 91 -380 11 -23 19 -51 19 -62 0 -12 5
-21 10 -21 6 0 10 -5 10 -11 0 -5 -6 -7 -12 -4 -7 4 -6 1 3 -7 9 -7 14 -20 11
-28 -3 -8 -2 -12 2 -8 4 3 24 -11 44 -32 27 -30 39 -36 49 -28 10 8 13 6 13
-6 0 -12 7 -15 25 -12 26 5 44 -9 23 -17 -7 -3 -3 -6 10 -6 14 -1 26 -10 32
-26 5 -14 14 -25 19 -25 6 0 26 -13 44 -30 19 -16 37 -27 41 -23 3 3 7 0 7 -8
1 -8 2 -20 3 -27 2 -22 69 -84 76 -71 9 13 50 -41 50 -65 0 -8 6 -19 14 -23
15 -9 66 -101 66 -120 0 -7 4 -13 10 -13 5 0 7 -7 4 -15 -3 -8 -2 -20 2 -27
10 -16 14 -42 14 -98 0 -25 8 -67 18 -95 10 -27 17 -65 16 -83 -2 -40 23 -41
43 -2 7 14 18 25 25 25 9 0 16 26 21 80 14 146 47 319 84 441 37 124 39 171 7
171 -15 0 -15 -1 0 -12 15 -11 15 -13 1 -19 -9 -3 -13 -2 -10 4 13 21 -10 9
-33 -17 -14 -17 -10 -7 11 27 19 30 55 93 82 140 42 76 84 138 56 83 -7 -14
-8 -24 -1 -28 5 -3 10 2 10 12 0 15 2 16 10 3 8 -12 9 -10 7 7 -2 12 -6 25 -9
29 -6 6 29 71 77 144 141 215 245 401 245 438 0 27 -26 -6 -86 -106 -65 -110
-232 -356 -242 -358 -25 -5 -52 -18 -52 -24 0 -4 -8 -11 -17 -15 -10 -3 -3 9
16 29 19 19 39 32 45 29 6 -3 8 -3 4 2 -4 4 7 27 26 49 154 189 306 507 361
757 22 101 31 360 16 441 -31 161 -105 296 -197 357 -84 55 -202 75 -304 51z
m222 -82 c56 -24 126 -96 161 -165 116 -229 74 -627 -106 -990 -81 -164 -215
-361 -237 -348 -5 3 -19 1 -30 -5 -16 -9 -18 -8 -14 5 4 8 14 16 23 16 14 1
14 2 -1 6 -25 6 -23 17 17 69 42 54 92 140 170 289 142 269 155 310 162 492 8
198 -22 320 -99 408 -108 123 -272 128 -441 15 -273 -182 -477 -572 -477 -910
0 -168 31 -262 111 -340 136 -132 335 -72 505 153 56 75 153 273 187 382 64
206 54 445 -24 571 -25 42 -77 74 -118 74 -42 0 -40 -23 3 -38 81 -30 122
-119 133 -288 10 -175 -27 -341 -118 -514 -49 -95 -139 -216 -197 -266 -92
-78 -215 -109 -288 -71 -47 24 -100 89 -120 148 -25 73 -26 291 -1 396 81 340
321 651 556 720 99 28 199 0 260 -74 95 -116 116 -376 46 -588 -29 -88 -175
-377 -238 -469 -58 -85 -171 -201 -236 -240 -31 -19 -80 -41 -110 -50 -59 -17
-126 -21 -117 -8 3 5 -4 19 -15 31 -20 21 -22 21 -36 4 -13 -17 -14 -16 -10 8
4 30 -19 36 -29 7 -5 -18 -44 -26 -44 -8 0 5 -7 7 -16 3 -9 -3 -20 0 -25 8 -7
11 -9 11 -9 -3 0 -10 7 -18 15 -18 8 0 15 -7 15 -15 0 -8 6 -15 13 -16 6 0 3
-4 -9 -9 -15 -6 -21 -17 -20 -37 1 -16 6 -27 13 -26 7 2 10 -3 7 -10 -6 -17
25 -45 57 -51 13 -2 24 -5 24 -7 0 -1 12 -2 27 -3 15 -1 30 -4 33 -7 9 -10
110 1 113 12 2 5 17 9 33 9 19 0 29 5 29 15 0 8 5 15 11 15 5 0 7 -5 3 -12 -4
-7 -3 -8 5 -4 9 6 9 11 0 22 -9 11 -9 17 1 29 7 8 16 12 21 9 5 -3 12 2 15 11
4 10 13 13 26 9 22 -7 51 13 41 29 -3 5 -1 7 5 3 6 -3 20 6 33 21 12 16 19 20
16 11 -7 -19 10 -24 29 -10 5 4 -7 -10 -28 -31 -22 -22 -43 -35 -50 -31 -6 4
-8 3 -4 -4 8 -14 -35 -44 -119 -84 -86 -40 -184 -49 -251 -23 -60 23 -132 97
-171 176 -101 206 -83 583 44 904 103 262 284 513 448 622 150 99 277 122 397
71z m-182 -1516 c0 -5 -14 -21 -31 -38 l-32 -29 24 37 c23 36 39 48 39 30z
m-155 -62 c-3 -5 -16 -15 -28 -21 -21 -10 -21 -9 2 10 25 23 36 27 26 11z
m-60 -49 c-3 -6 -11 -11 -16 -11 -5 0 -4 6 3 14 14 16 24 13 13 -3z m-373 -26
c0 -5 -5 -10 -11 -11 -8 -2 -7 -1 0 3 8 4 7 8 -2 15 -11 8 -11 9 -1 6 8 -2 14
-8 14 -13z m341 8 c3 -5 -6 -9 -20 -10 -19 -1 -22 1 -12 8 17 11 26 11 32 2z
m-86 -29 c-3 -3 -12 -4 -19 -1 -8 3 -5 6 6 6 11 1 17 -2 13 -5z m249 -34 c-43
-38 -44 -47 -11 -62 14 -6 25 -15 25 -20 0 -5 -14 0 -31 12 -29 22 -31 22 -44
4 -8 -11 -15 -15 -15 -10 0 5 -7 3 -15 -4 -13 -11 -13 -15 -3 -22 8 -6 1 -7
-19 -3 -18 4 -33 3 -33 -2 0 -12 -116 -45 -138 -40 -13 4 -11 5 5 6 59 3 225
94 282 155 14 14 26 24 29 22 2 -3 -12 -19 -32 -36z m-287 26 c-10 -10 -67
-13 -80 -5 -9 6 3 9 35 9 27 0 47 -2 45 -4z m344 -76 c-21 -38 -41 -70 -46
-70 -4 0 0 11 9 25 8 13 13 29 9 35 -3 5 -1 10 5 10 6 0 8 5 4 12 -4 7 -3 8 4
4 6 -4 18 6 27 24 8 16 18 30 21 30 3 0 -12 -31 -33 -70z m-553 -65 c33 -17
82 -31 125 -36 l70 -8 -83 4 c-45 1 -84 -1 -87 -5 -2 -4 -16 -7 -30 -7 -15 0
-22 4 -18 11 4 6 -2 4 -13 -4 -10 -8 -16 -10 -12 -6 4 5 2 16 -5 24 -10 13 -9
14 1 8 28 -17 6 28 -33 68 -33 33 -34 35 -5 10 19 -18 60 -44 90 -59z m389
-274 c-13 -11 -30 -20 -38 -21 -8 0 1 11 20 23 40 28 52 26 18 -2z m-76 -28
c-13 -2 -33 -2 -45 0 -13 2 -3 4 22 4 25 0 35 -2 23 -4z"/>
<path d="M6729 5050 c-20 -10 -61 -46 -92 -80 -134 -144 -218 -428 -173 -583
55 -189 228 -195 363 -13 174 234 206 577 63 674 -41 28 -111 29 -161 2z m145
-66 c33 -34 46 -81 46 -171 0 -138 -35 -252 -118 -376 -122 -186 -265 -176
-289 20 -14 126 46 327 136 450 72 99 169 132 225 77z"/>
<path d="M6735 4870 c-36 -15 -93 -84 -121 -144 -35 -77 -44 -187 -20 -235 47
-91 151 -50 217 85 58 117 48 270 -19 295 -27 11 -30 10 -57 -1z m-3 -83 c-25
-26 -54 -92 -45 -101 4 -3 1 -6 -5 -6 -7 0 -12 -15 -12 -35 0 -19 -4 -35 -9
-35 -5 0 -12 -8 -14 -17 -3 -10 -5 -4 -6 13 -2 68 65 204 101 204 7 0 2 -10
-10 -23z"/>
<path d="M6440 4819 c-42 -78 -100 -309 -100 -398 0 -42 27 -141 38 -141 4 0
5 57 3 126 -4 141 6 204 51 337 28 86 32 122 8 76z"/>
<path d="M6620 4015 c-28 -16 -28 -16 17 -20 29 -2 31 0 22 16 -5 11 -11 19
-12 19 -1 -1 -13 -7 -27 -15z"/>
<path d="M6316 3987 c3 -10 9 -15 12 -12 3 3 0 11 -7 18 -10 9 -11 8 -5 -6z"/>
<path d="M6490 3990 c0 -5 7 -7 15 -4 8 4 15 8 15 10 0 2 -7 4 -15 4 -8 0 -15
-4 -15 -10z"/>
<path d="M6805 3920 c-3 -5 -1 -10 4 -10 6 0 11 5 11 10 0 6 -2 10 -4 10 -3 0
-8 -4 -11 -10z"/>
<path d="M6675 3840 c3 -5 12 -7 20 -3 21 7 19 13 -6 13 -11 0 -18 -4 -14 -10z"/>
<path d="M6315 5250 c-9 -18 -14 -34 -11 -37 2 -3 12 9 21 27 9 18 14 34 11
37 -2 3 -12 -9 -21 -27z"/>
<path d="M6034 4259 c-3 -6 -1 -16 4 -21 8 -8 11 -5 9 11 -1 24 -3 25 -13 10z"/>
<path d="M7030 3858 c-23 -25 -22 -29 7 -22 13 4 21 13 20 25 -2 24 -2 24 -27
-3z"/>
<path d="M5661 3805 c1 -19 18 -51 18 -35 0 8 -4 22 -9 30 -5 8 -9 11 -9 5z"/>
<path d="M3915 5464 c104 -55 163 -119 235 -255 31 -60 38 -67 43 -48 6 24
-13 67 -70 156 -75 117 -146 173 -220 173 l-38 0 50 -26z"/>
<path d="M4123 3673 c-102 -160 -130 -296 -124 -618 2 -109 17 -79 26 49 17
269 47 404 118 539 24 46 42 107 31 107 -1 0 -24 -35 -51 -77z"/>
<path d="M3421 3633 c0 -5 4 -17 9 -28 8 -18 9 -17 9 8 1 15 -3 27 -9 27 -5 0
-10 -3 -9 -7z"/>
<path d="M4421 3475 c-131 -297 -180 -544 -181 -906 0 -116 2 -138 16 -143 9
-3 18 -6 20 -6 2 0 4 69 4 154 0 294 31 479 126 764 75 223 82 290 15 137z"/>
<path d="M3393 3130 c0 -41 2 -58 4 -37 2 20 2 54 0 75 -2 20 -4 3 -4 -38z"/>
<path d="M3221 2873 c1 -60 4 -96 6 -80 2 15 9 27 15 27 5 0 8 -6 5 -14 -3 -8
0 -22 8 -32 11 -16 10 -20 -4 -32 -16 -13 7 -2 102 53 43 25 47 30 46 63 l-2
37 -7 -35 c-4 -19 -8 -26 -9 -15 -1 16 -3 17 -10 5 -6 -8 -7 -18 -5 -22 9 -14
-7 -9 -22 7 -10 10 -11 15 -4 15 8 0 10 10 8 25 -4 21 -3 23 9 14 7 -7 16 -9
20 -5 3 3 4 8 2 10 -12 10 -146 86 -152 86 -4 0 -6 -48 -6 -107z"/>
<path d="M2546 2382 c-3 -5 1 -9 9 -9 8 0 12 4 9 9 -3 4 -7 8 -9 8 -2 0 -6 -4
-9 -8z"/>
<path d="M2677 2349 c-22 -11 -36 -23 -33 -26 3 -3 13 0 22 7 13 11 17 11 24
0 11 -18 40 -5 40 20 0 25 -5 24 -53 -1z"/>
<path d="M5540 4420 c-12 -7 -12 -10 -1 -10 7 0 11 -6 8 -13 -3 -8 -2 -29 3
-48 7 -29 8 -31 10 -9 9 98 9 98 -20 80z"/>
<path d="M5433 4015 c-9 -10 -10 -16 -2 -21 7 -4 8 -9 1 -13 -6 -4 -6 -15 1
-31 5 -14 9 -33 8 -42 -1 -11 4 -18 15 -18 12 0 14 3 6 13 -11 13 9 53 21 41
8 -8 19 34 12 46 -4 6 -11 8 -16 5 -5 -4 -9 1 -9 10 0 9 -4 14 -9 11 -5 -4
-11 -2 -13 3 -1 5 -9 3 -15 -4z m35 -37 c-7 -19 -21 -12 -25 11 -3 20 -1 22
12 11 9 -7 14 -17 13 -22z"/>
<path d="M5464 3918 c-5 -8 0 -9 15 -5 15 4 21 2 18 -6 -2 -7 2 -18 9 -25 12
-10 14 -10 14 2 0 41 -38 64 -56 34z"/>
<path d="M5440 3866 c0 -23 15 -27 36 -11 16 13 17 14 2 9 -10 -3 -18 -1 -18
5 0 6 -4 11 -10 11 -5 0 -10 -6 -10 -14z"/>
<path d="M4251 5941 c-3 -170 64 -444 164 -667 37 -82 79 -178 93 -213 14 -36
28 -59 30 -51 3 8 10 2 18 -16 l13 -29 -6 30 c-6 33 -45 134 -123 325 -80 194
-105 296 -156 628 -3 18 -9 30 -14 27 -5 -3 -11 3 -13 12 -3 10 -5 -11 -6 -46z"/>
<path d="M4686 2369 c4 -8 0 -9 -15 -4 -20 6 -21 3 -21 -74 0 -45 3 -81 8 -82
4 0 15 -2 25 -4 9 -2 15 0 12 5 -3 4 1 10 8 13 16 6 21 125 6 143 -14 17 -33
19 -23 3z m24 -25 c0 -8 -4 -12 -10 -9 -5 3 -10 10 -10 16 0 5 5 9 10 9 6 0
10 -7 10 -16z"/>
<path d="M5676 5828 c-46 -300 -93 -475 -203 -745 -179 -443 -217 -558 -207
-617 6 -38 9 -33 69 139 34 99 105 286 157 415 104 258 145 384 184 565 28
133 36 265 17 272 -7 3 -14 -9 -17 -29z"/>
<path d="M5357 3266 c-4 -10 -1 -13 8 -9 8 3 12 9 9 14 -7 12 -11 11 -17 -5z"/>
<path d="M5425 3260 c-3 -5 -1 -10 4 -10 6 0 11 5 11 10 0 6 -2 10 -4 10 -3 0
-8 -4 -11 -10z"/>
<path d="M5369 3217 c9 -23 41 -37 41 -17 0 7 -7 10 -14 7 -10 -4 -13 -1 -10
7 3 7 -2 16 -10 19 -12 5 -13 1 -7 -16z"/>
<path d="M2329 3573 c-1 -10 0 -22 1 -28 1 -5 3 -15 3 -22 1 -29 17 2 17 33 0
34 -19 49 -21 17z"/>
<path d="M3830 4655 c-9 -10 -9 -15 -1 -15 6 0 11 5 11 10 0 6 8 10 18 10 13
0 14 -2 3 -9 -10 -7 -5 -17 26 -45 46 -41 90 -131 106 -217 7 -33 15 -59 18
-59 4 0 5 -8 2 -19 -3 -10 0 -22 6 -25 14 -9 14 29 1 112 -17 103 -48 172
-100 225 -50 49 -70 57 -90 32z"/>
<path d="M3745 4459 c-45 -40 -78 -96 -104 -179 -53 -170 -47 -340 20 -593 22
-83 57 -235 78 -337 49 -242 64 -268 57 -100 -5 124 -15 185 -75 430 -42 174
-51 238 -51 365 0 163 40 297 107 355 41 36 48 37 76 6 36 -39 60 -130 65
-241 3 -90 1 -104 -20 -144 -13 -25 -36 -54 -52 -65 l-28 -21 -19 23 c-42 52
-50 182 -16 251 17 33 8 41 -17 16 -22 -22 -36 -81 -36 -150 0 -81 31 -143 83
-168 36 -18 38 -18 70 0 20 12 44 41 64 82 30 57 33 71 33 155 0 194 -76 346
-174 346 -14 0 -41 -14 -61 -31z"/>
<path d="M4021 4144 c0 -11 3 -14 6 -6 3 7 2 16 -1 19 -3 4 -6 -2 -5 -13z"/>
<path d="M3846 2820 c3 -52 7 -96 9 -99 8 -8 4 101 -5 149 -7 34 -8 21 -4 -50z"/>
<path d="M7771 3454 c0 -11 3 -14 6 -6 3 7 2 16 -1 19 -3 4 -6 -2 -5 -13z"/>
<path d="M5263 2780 c0 -30 2 -43 4 -27 2 15 2 39 0 55 -2 15 -4 2 -4 -28z"/>
<path d="M909 2859 c-68 -40 -127 -77 -131 -83 -4 -6 -8 -41 -8 -78 l0 -66
123 -71 122 -71 123 0 122 0 73 43 c39 24 93 56 120 71 l47 27 0 77 0 77 -127
73 -127 72 -106 0 -106 0 -125 -71z m136 1 c3 -5 -17 -24 -44 -42 -28 -18 -51
-36 -51 -39 0 -3 11 -11 25 -17 25 -12 32 -26 16 -36 -8 -5 -111 45 -111 54 0
6 142 90 152 90 4 0 10 -4 13 -10z m153 -90 c38 -24 41 -48 7 -80 -18 -17 -40
-25 -78 -28 -46 -4 -57 -1 -81 20 -35 30 -29 60 17 89 41 24 93 24 135 -1z
m151 -85 c24 -12 41 -33 41 -51 0 -12 -43 -1 -60 16 -24 24 -57 26 -87 5 -40
-28 4 -69 46 -43 17 10 23 10 33 0 11 -11 9 -16 -6 -28 -38 -27 -120 -10 -131
28 -21 65 86 114 164 73z"/>
<path d="M1089 2741 c-20 -16 -21 -21 -10 -35 24 -28 101 -14 101 19 0 15 -30
35 -53 35 -8 0 -25 -8 -38 -19z"/>
<path d="M4900 2118 c0 -4 -5 -7 -11 -5 -21 4 -21 -24 0 -30 12 -3 21 -9 21
-13 0 -4 7 -11 16 -14 12 -4 15 -2 10 9 -3 9 0 15 10 15 8 0 12 5 9 10 -4 6
-11 8 -16 5 -8 -5 -13 7 -11 26 1 3 -6 6 -14 6 -7 0 -14 -4 -14 -9z"/>
<path d="M1700 2159 c-69 -39 -128 -77 -132 -83 -4 -6 -8 -41 -8 -77 l0 -67
126 -72 c105 -61 134 -73 167 -72 23 1 44 8 49 15 6 9 8 9 8 0 0 -9 20 -13 67
-13 65 0 70 2 190 72 l124 72 -3 75 -3 74 -120 71 -120 71 -110 3 -110 3 -125
-72z m280 5 c0 -27 -4 -34 -20 -34 -16 0 -20 7 -20 33 0 38 6 48 26 40 8 -3
14 -19 14 -39z m-150 -4 c17 -10 19 -8 -42 -46 -27 -16 -48 -32 -48 -35 0 -3
11 -12 25 -19 22 -12 24 -16 11 -28 -12 -12 -20 -10 -61 18 l-47 33 48 29 c27
17 58 36 69 43 24 17 26 17 45 5z m255 -35 c29 -9 59 -22 65 -30 7 -8 25 -15
40 -15 15 0 33 -7 40 -15 7 -8 11 -15 9 -15 -94 -9 -125 -6 -147 15 -12 13
-36 28 -52 35 -17 7 -30 19 -30 26 0 18 10 18 75 -1z m-106 -50 c53 -27 51
-73 -3 -99 -78 -37 -177 -3 -163 56 13 49 107 74 166 43z m177 -106 c13 -12
24 -26 24 -31 0 -16 -47 -8 -65 12 -19 21 -68 18 -95 -6 -12 -12 -12 -16 3
-31 14 -15 22 -16 49 -5 54 20 68 -5 16 -29 -37 -17 -67 -13 -98 13 -36 32
-24 68 30 93 45 20 105 13 136 -16z m-308 -79 c6 -17 -25 -11 -91 16 -78 32
-87 41 -56 52 19 7 36 2 84 -24 33 -18 61 -38 63 -44z m82 -24 c0 -38 -10 -49
-34 -40 -21 8 -20 50 2 63 27 16 32 13 32 -23z"/>
<path d="M1888 2048 c-37 -13 -37 -45 -2 -54 29 -7 75 5 81 21 9 29 -37 49
-79 33z"/>
<path d="M3030 1779 c-30 -18 -90 -52 -133 -77 l-78 -44 3 -75 3 -75 120 -69
120 -68 122 -1 123 0 102 60 c57 33 110 64 118 69 11 6 16 30 18 89 l3 80
-123 69 -123 68 -110 3 c-107 2 -111 2 -165 -29z m57 -46 c2 -6 -17 -24 -42
-39 -25 -16 -45 -32 -45 -35 0 -3 12 -11 26 -18 21 -9 24 -14 14 -26 -11 -13
-19 -11 -61 13 -27 15 -48 30 -46 34 3 12 130 86 141 84 6 -1 11 -7 13 -13z
m169 -94 c30 -28 30 -40 0 -68 -47 -44 -166 -37 -181 10 -10 32 4 56 43 73 48
21 107 14 138 -15z m127 -72 c44 -19 62 -41 44 -56 -11 -8 -20 -6 -40 9 -50
39 -145 14 -104 -28 14 -14 22 -15 49 -4 56 21 67 -7 13 -32 -30 -15 -38 -15
-69 -2 -61 26 -66 79 -9 110 35 19 74 20 116 3z"/>
<path d="M3155 1633 c-30 -7 -47 -33 -34 -50 23 -27 109 -9 109 22 0 8 -9 19
-19 25 -21 10 -23 11 -56 3z"/>
<path d="M3970 8696 c-30 -18 -181 -102 -335 -186 -154 -84 -354 -195 -445
-245 l-165 -91 -3 -97 c-1 -53 -1 -97 1 -97 6 0 541 301 555 312 22 19 13 -4
-23 -52 -100 -136 -271 -241 -446 -275 -45 -8 -83 -15 -85 -15 -2 0 -4 -13 -4
-29 0 -28 1 -29 43 -24 241 28 442 159 611 400 42 58 61 76 120 107 39 21 108
59 153 85 l83 46 0 98 c0 53 -1 97 -2 96 -2 0 -28 -15 -58 -33z"/>
<path d="M4290 8511 c-41 -15 -108 -44 -147 -65 -69 -34 -73 -38 -73 -70 l0
-33 77 40 c42 22 117 55 167 72 81 29 91 36 94 59 4 34 -19 34 -118 -3z"/>
<path d="M4845 8249 c-100 -11 -254 -40 -259 -48 -2 -3 2 -14 9 -24 12 -17 17
-17 67 -3 40 11 315 56 345 56 3 0 0 7 -7 15 -14 16 -44 17 -155 4z"/>
<path d="M5028 8243 c7 -3 16 -2 19 1 4 3 -2 6 -13 5 -11 0 -14 -3 -6 -6z"/>
<path d="M3896 7958 c-43 -49 -106 -109 -140 -133 -62 -44 -259 -148 -371
-197 -55 -24 -57 -26 -29 -27 21 -1 34 5 38 15 4 9 9 14 13 11 3 -4 12 -2 20
4 10 9 13 8 13 -5 0 -9 -8 -16 -17 -16 -16 -1 -66 -30 -51 -30 32 0 321 143
394 195 59 42 234 214 234 230 0 6 -6 18 -12 27 -11 13 -24 3 -92 -74z"/>
<path d="M5425 7981 c-19 -8 -19 -8 3 -15 29 -10 70 2 51 15 -17 10 -27 10
-54 0z"/>
<path d="M6815 7716 c-372 -164 -453 -218 -662 -449 -153 -169 -229 -233 -351
-296 l-94 -48 38 -6 c84 -14 256 111 474 344 180 192 277 255 625 405 88 38
152 70 142 72 -9 2 -17 10 -17 18 0 23 -29 16 -155 -40z"/>
<path d="M3286 7404 c-21 -20 -20 -50 0 -58 22 -8 82 -7 87 2 3 4 -13 7 -36 7
-32 0 -42 4 -45 18 -3 14 4 17 35 17 22 0 44 -5 51 -12 9 -9 12 -8 12 5 0 35
-75 50 -104 21z"/>
<path d="M6129 7043 c-13 -16 -12 -17 4 -4 9 7 17 15 17 17 0 8 -8 3 -21 -13z"/>
<path d="M4365 6791 c-55 -10 -134 -28 -176 -39 -76 -21 -245 -91 -281 -117
-20 -13 -20 -13 0 -24 16 -8 38 -3 109 28 114 50 225 85 338 106 50 10 95 22
101 26 5 5 21 5 34 2 16 -4 21 -3 16 5 -7 11 7 16 64 25 14 3 -4 5 -40 5 -36
0 -110 -8 -165 -17z"/>
</g>
</svg>
